<?xml version="1.0" standalone="no"?>
<!DOCTYPE svg PUBLIC "-//W3C//DTD SVG 20010904//EN"
 "http://www.w3.org/TR/2001/REC-SVG-20010904/DTD/svg10.dtd">
<svg version="1.0" xmlns="http://www.w3.org/2000/svg"
 width="300.000000pt" height="69.000000pt" viewBox="0 0 300.000000 69.000000"
 preserveAspectRatio="xMidYMid meet">
<metadata>
Created by potrace 1.10, written by Peter Selinger 2001-2011
</metadata>
<g transform="translate(0.000000,69.000000) scale(0.100000,-0.100000)"
fill="#000000" stroke="none">
<path d="M1360 624 c25 -14 69 -39 98 -56 28 -16 52 -28 52 -25 0 8 -169 107
-182 107 -7 0 7 -12 32 -26z"/>
<path d="M1470 640 c-13 -9 -13 -10 0 -10 8 0 22 5 30 10 13 9 13 10 0 10 -8
0 -22 -5 -30 -10z"/>
<path d="M1531 645 c-1 -5 -2 -59 -2 -119 1 -98 0 -108 -16 -102 -15 6 -16 5
-1 -11 9 -10 17 -36 19 -58 l4 -40 -60 2 -60 1 50 -7 c28 -4 58 -11 67 -15 9
-4 25 -3 34 2 16 9 15 11 -4 21 -15 8 -22 21 -22 42 0 29 0 29 25 13 13 -8 29
-13 35 -9 6 4 9 1 8 -7 -2 -7 5 -12 15 -12 9 1 17 -2 17 -8 0 -5 4 -6 10 -3 5
3 15 -5 22 -19 8 -19 14 -23 23 -16 9 8 14 6 19 -5 3 -9 10 -13 16 -10 5 3 14
-5 20 -19 12 -32 17 -33 15 -4 -1 18 -26 37 -111 85 l-109 63 -5 122 c-3 68
-7 119 -9 113z"/>
<path d="M1312 580 c0 -14 2 -19 5 -12 2 6 2 18 0 25 -3 6 -5 1 -5 -13z"/>
<path d="M1300 542 c0 -7 26 -23 130 -80 36 -19 61 -30 55 -24 -15 16 -185
112 -185 104z"/>
<path d="M510 355 l0 -125 25 0 c25 0 25 0 25 100 0 100 -12 150 -37 150 -10
0 -13 -27 -13 -125z"/>
<path d="M610 465 c-16 -19 -5 -47 17 -43 22 4 29 43 9 51 -8 3 -20 -1 -26 -8z"/>
<path d="M1107 440 c5 -26 3 -30 -16 -30 -11 0 -21 -4 -21 -10 0 -5 9 -10 21
-10 19 0 20 -5 18 -77 -2 -76 -1 -78 21 -78 22 0 23 2 21 78 l-2 77 30 0 c17
0 31 5 31 10 0 6 -14 10 -31 10 -29 0 -31 2 -27 30 4 27 2 30 -23 30 -26 0
-28 -2 -22 -30z"/>
<path d="M2410 351 l0 -118 25 0 c24 0 25 2 25 63 0 44 5 67 16 78 19 20 28
20 44 1 13 -16 9 -122 -6 -159 -15 -39 21 -10 44 34 28 56 29 113 2 140 -24
24 -67 26 -91 5 -16 -15 -16 -13 -12 30 5 43 5 45 -21 45 l-26 0 0 -119z m27
-8 c-2 -16 -4 -3 -4 27 0 30 2 43 4 28 2 -16 2 -40 0 -55z"/>
<path d="M2630 441 c0 -21 -6 -31 -22 -36 l-23 -8 23 -4 c21 -4 22 -9 22 -84
0 -78 0 -79 25 -79 25 0 25 1 25 80 0 79 0 80 25 80 14 0 25 5 25 10 0 6 -11
10 -25 10 -21 0 -25 5 -25 30 0 25 -4 30 -25 30 -21 0 -25 -5 -25 -29z m27
-63 c-3 -7 -5 -2 -5 12 0 14 2 19 5 13 2 -7 2 -19 0 -25z"/>
<path d="M120 442 c-68 -33 -47 -102 37 -123 54 -14 69 -31 48 -53 -23 -22
-48 -20 -77 7 -21 20 -28 22 -43 11 -15 -11 -14 -14 10 -30 40 -26 117 -28
144 -3 45 42 21 93 -54 114 -61 18 -73 29 -55 50 18 21 50 18 77 -7 21 -20 25
-20 39 -6 14 14 12 17 -28 37 -53 25 -54 25 -98 3z m87 -108 c-3 -3 -12 -4
-19 -1 -8 3 -5 6 6 6 11 1 17 -2 13 -5z"/>
<path d="M1792 433 c38 -46 69 -118 66 -158 -2 -38 -2 -40 31 -42 l33 -3 -6
44 c-6 40 -3 51 33 110 39 65 39 66 16 66 -19 0 -27 -10 -46 -55 -12 -30 -26
-52 -30 -48 -3 5 -14 29 -24 56 -17 44 -20 47 -53 47 -32 0 -34 -1 -20 -17z
m95 -155 c-2 -13 -4 -5 -4 17 -1 22 1 32 4 23 2 -10 2 -28 0 -40z"/>
<path d="M1433 418 c-28 -14 -29 -20 -3 -36 17 -10 25 -9 45 4 24 16 24 17 8
30 -21 16 -21 16 -50 2z"/>
<path d="M315 385 c-35 -34 -35 -96 0 -130 26 -27 73 -33 93 -13 8 8 12 8 12
1 0 -6 11 -10 25 -10 25 0 25 0 25 88 0 58 -4 89 -11 89 -6 0 -13 -9 -16 -20
-3 -11 -8 -20 -12 -20 -3 0 -12 9 -19 20 -17 29 -67 26 -97 -5z m89 -11 c9 -8
16 -30 16 -47 0 -32 -23 -77 -40 -77 -20 0 -40 34 -40 66 0 65 30 92 64 58z
m43 -36 c-3 -8 -6 -5 -6 6 -1 11 2 17 5 13 3 -3 4 -12 1 -19z m0 -50 c-3 -8
-6 -5 -6 6 -1 11 2 17 5 13 3 -3 4 -12 1 -19z"/>
<path d="M600 320 c0 -89 0 -90 25 -90 25 0 25 1 25 90 0 89 0 90 -25 90 -25
0 -25 -1 -25 -90z"/>
<path d="M709 381 c-20 -20 -29 -39 -29 -61 0 -40 47 -90 85 -90 30 0 85 26
85 40 0 13 -27 13 -32 0 -6 -18 -51 -20 -70 -3 -29 26 -22 33 32 33 41 0 52 4
65 24 13 19 14 29 5 45 -26 50 -97 56 -141 12z m101 -10 c13 -25 13 -27 -6
-45 -20 -20 -63 -21 -70 -1 -9 21 23 65 46 65 11 0 24 -9 30 -19z"/>
<path d="M880 319 l0 -90 26 3 c24 3 26 6 27 65 2 66 22 101 51 90 30 -12 32
-68 5 -167 -2 -8 2 -15 10 -15 18 0 52 65 58 112 10 75 -62 120 -113 72 l-22
-21 -11 21 c-22 41 -31 21 -31 -70z"/>
<path d="M2025 385 c-53 -52 -18 -155 53 -155 15 0 33 5 40 12 8 8 12 8 12 1
0 -6 11 -10 25 -10 25 0 25 0 25 88 0 84 -11 114 -25 69 -3 -11 -9 -20 -13
-20 -4 0 -13 9 -20 20 -17 29 -67 26 -97 -5z m89 -11 c20 -20 20 -73 0 -102
-18 -26 -27 -27 -48 -6 -31 30 -13 124 24 124 5 0 16 -7 24 -16z"/>
<path d="M2238 380 c-26 -27 -30 -36 -25 -68 12 -75 98 -109 147 -57 17 18 19
25 9 25 -8 0 -20 -5 -27 -12 -21 -21 -50 -19 -67 4 -43 63 18 153 69 102 9 -8
21 -14 28 -12 7 3 2 13 -12 26 -35 33 -84 29 -122 -8z"/>
<path d="M2774 402 c-18 -12 -34 -50 -28 -65 6 -16 38 -31 87 -42 20 -4 27
-11 25 -23 -4 -21 -47 -25 -69 -6 -15 14 -49 10 -49 -5 0 -13 50 -31 85 -31
58 0 98 59 61 89 -8 7 -30 15 -50 18 -38 6 -62 26 -51 43 10 15 52 12 70 -6
13 -13 18 -14 31 -3 14 11 13 14 -8 25 -25 15 -87 18 -104 6z"/>
<path d="M1356 374 l-28 -16 27 -14 c23 -12 30 -11 51 2 23 16 23 17 7 30 -22
17 -22 17 -57 -2z m44 -8 c0 -2 -7 -7 -16 -10 -8 -3 -12 -2 -9 4 6 10 25 14
25 6z"/>
<path d="M1332 321 c-10 -6 -7 -12 12 -24 32 -22 43 -21 43 1 0 28 -29 40 -55
23z"/>
<path d="M1610 315 c-7 -9 -36 -28 -64 -42 -40 -20 -54 -23 -68 -14 -24 15
-28 14 -28 -9 0 -11 11 -27 25 -36 24 -15 29 -15 68 0 23 9 55 26 71 39 25 20
28 27 20 51 -9 26 -11 27 -24 11z m-23 -57 c-3 -8 -6 -5 -6 6 -1 11 2 17 5 13
3 -3 4 -12 1 -19z"/>
<path d="M1258 304 c-14 -14 -8 -64 10 -82 10 -10 72 -49 138 -86 65 -38 121
-71 124 -74 18 -18 -76 12 -120 38 -30 18 -68 41 -85 50 -96 55 -106 63 -94
71 24 15 1 21 -25 7 -26 -14 -25 -15 118 -96 141 -81 146 -83 203 -80 57 3 58
3 61 36 3 24 11 36 34 48 16 8 27 18 24 22 -4 3 -20 -4 -36 -16 -38 -28 -43
-28 -106 8 -30 17 -51 24 -48 16 3 -7 27 -24 55 -36 55 -26 82 -50 56 -50 -26
0 -292 157 -295 174 -5 22 4 20 42 -9 34 -26 46 -30 46 -17 0 4 -20 18 -44 31
-25 13 -46 30 -48 38 -2 8 -6 11 -10 7z"/>
<path d="M1296 301 c-3 -5 3 -11 15 -14 16 -4 18 -3 8 9 -13 16 -16 17 -23 5z"/>
<path d="M1410 287 c0 -8 7 -20 15 -27 12 -10 15 -10 15 3 0 8 -7 20 -15 27
-12 10 -15 10 -15 -3z"/>
<path d="M1637 245 c-26 -18 -66 -40 -88 -50 l-41 -19 23 -17 c22 -16 25 -16
62 3 21 10 45 17 53 14 8 -3 14 -1 14 4 0 16 -38 12 -66 -6 -17 -12 -28 -14
-35 -7 -7 7 4 19 36 37 46 25 48 25 76 9 23 -13 31 -15 41 -5 9 9 7 12 -11 12
-25 0 -62 29 -39 31 25 2 43 -3 60 -18 9 -8 18 -11 21 -6 3 5 -9 18 -26 29
l-32 21 -48 -32z"/>
<path d="M1393 255 c0 -8 4 -12 8 -9 4 2 10 -2 12 -8 4 -8 6 -9 6 -2 1 6 -5
17 -12 23 -10 8 -14 7 -14 -4z"/>
<path d="M1742 208 c-25 -16 -30 -23 -20 -30 8 -5 3 -6 -13 -2 -15 3 -30 1
-34 -5 -4 -8 12 -10 52 -9 58 3 58 3 61 36 4 38 -2 39 -46 10z m38 -6 c0 -5
-7 -9 -15 -9 -8 0 -12 4 -9 9 3 4 9 8 15 8 5 0 9 -4 9 -8z"/>
<path d="M1380 211 c0 -6 14 -17 30 -26 17 -9 30 -12 30 -7 0 4 -13 16 -30 25
-16 10 -30 13 -30 8z"/>
</g>
</svg>
